<svg width="248" height="86" viewBox="0 0 248 86" fill="none" xmlns="http://www.w3.org/2000/svg">
<path d="M216.389 20.4311C216.389 20.4311 182.24 32.0952 177.093 31.0951C171.946 30.0951 166.446 7.74306 177.093 3.91909C187.74 0.0951142 238.74 0.595155 241.989 3.91909C245.238 7.24302 241.989 18.6391 241.989 18.6391L202.821 68.3031V68.5591C202.821 68.5591 239.24 56.5952 244.037 58.5951C248.834 60.5951 248.334 85.0711 244.037 85.0711C239.74 85.0711 175.045 85.0711 175.045 85.0711L177.093 62.5951L216.389 20.6871V20.4311Z" fill="#D9D9D9"/>
<path d="M138.265 82.6579C134.765 85.5059 97.7651 85.0059 95.7651 82.6579C93.7651 80.3099 79 1.63389 79 1.63389C79 1.63389 159.535 -2.04213 163.9 1.63389C168.265 5.30992 170.035 28.3099 163.9 28.8099C157.765 29.3099 124.22 18.2739 124.22 18.2739V36.8339C124.22 36.8339 158.78 34.3579 161.34 36.8339C163.9 39.3099 164.915 61.3099 161.34 62.3099C157.765 63.3099 124.22 53.4739 124.22 53.4739C124.22 53.4739 141.765 79.8099 138.265 82.6579Z" fill="#D9D9D9"/>
<path d="M87.6604 70.6256C87.7736 72.0541 87.8585 73.2878 87.9151 74.3267C87.9717 75.3007 88 76.3396 88 77.4435C88 78.4824 87.9717 79.5538 87.9151 80.6576C87.8585 81.6965 87.7736 82.8978 87.6604 84.2614C86.2456 84.5211 84.8307 84.7484 83.4158 84.9432C82.0009 85.138 80.5861 85.2354 79.1712 85.2354C77.8129 85.2354 76.4546 85.138 75.0964 84.9432C73.7381 84.7484 72.3515 84.5211 70.9366 84.2614C70.7668 82.9627 70.6536 81.7939 70.5971 80.755C70.5405 79.6512 70.5122 78.5798 70.5122 77.5409C70.5122 76.5669 70.5405 75.528 70.5971 74.4241C70.6536 73.3203 66.7564 66.3096 70.9366 70.6256C75.1169 74.9415 76.5678 69.749 79.341 69.749C82.1141 69.749 84.8873 70.0412 87.6604 70.6256Z" fill="#D9D9D9"/>
<path d="M170.66 70.6256C170.774 72.0541 170.859 73.2878 170.915 74.3267C170.972 75.3007 171 76.3396 171 77.4435C171 78.4824 170.972 79.5538 170.915 80.6576C170.859 81.6965 170.774 82.8978 170.66 84.2614C169.246 84.5211 167.831 84.7484 166.416 84.9432C165.001 85.138 163.586 85.2354 162.171 85.2354C160.813 85.2354 159.455 85.138 158.096 84.9432C156.738 84.7484 155.351 84.5211 153.937 84.2614C153.767 82.9627 153.654 81.7939 153.597 80.755C153.54 79.6512 153.512 78.5798 153.512 77.5409C153.512 76.5669 153.54 75.528 153.597 74.4241C153.654 73.3203 149.756 66.3096 153.937 70.6256C158.117 74.9415 159.568 69.749 162.341 69.749C165.114 69.749 167.887 70.0412 170.66 70.6256Z" fill="#D9D9D9"/>
<path d="M66.9551 59.3589C68.8953 62.3589 66.9551 84.2068 66.9551 84.2068H8.07509C8.07509 84.2068 -2.10484 6.8588 0.395157 3.18283C2.89516 -0.493141 56 -0.993196 58 3.18283C60 7.35886 28.5551 66.7988 28.5551 66.7988C28.5551 66.7988 65.0149 56.3588 66.9551 59.3589Z" fill="#D9D9D9"/>
</svg>
