<svg width="248" height="86" viewBox="0 0 248 86" fill="none" xmlns="http://www.w3.org/2000/svg">
<path d="M216.389 21.1957C216.389 21.1957 182.24 32.8598 177.093 31.8598C171.946 30.8597 166.446 8.50771 177.093 4.68374C187.74 0.859763 238.74 1.3598 241.989 4.68374C245.238 8.00767 241.989 19.4037 241.989 19.4037L202.821 69.0677V69.3237C202.821 69.3237 239.24 57.3598 244.037 59.3598C248.834 61.3597 248.334 85.8357 244.037 85.8357C239.74 85.8357 175.045 85.8357 175.045 85.8357L177.093 63.3598L216.389 21.4517V21.1957Z" fill="#9E8D2E"/>
<path d="M138.265 83.4224C134.765 86.2704 97.7651 85.7704 95.7651 83.4224C93.7651 81.0744 79 2.39842 79 2.39842C79 2.39842 159.535 -1.27761 163.9 2.39842C168.265 6.07444 170.035 29.0744 163.9 29.5744C157.765 30.0744 124.22 19.0384 124.22 19.0384V37.5984C124.22 37.5984 158.78 35.1224 161.34 37.5984C163.9 40.0744 164.915 62.0744 161.34 63.0744C157.765 64.0744 124.22 54.2384 124.22 54.2384C124.22 54.2384 141.765 80.5744 138.265 83.4224Z" fill="#9E8D2E"/>
<path d="M87.6604 71.3902C87.7736 72.8187 87.8585 74.0524 87.9151 75.0914C87.9717 76.0653 88 77.1043 88 78.2081C88 79.247 87.9717 80.3184 87.9151 81.4223C87.8585 82.4612 87.7736 83.6624 87.6604 85.026C86.2456 85.2857 84.8307 85.513 83.4158 85.7078C82.0009 85.9026 80.5861 86 79.1712 86C77.8129 86 76.4546 85.9026 75.0964 85.7078C73.7381 85.513 72.3515 85.2857 70.9366 85.026C70.7668 83.7274 70.6536 82.5586 70.5971 81.5197C70.5405 80.4158 70.5122 79.3444 70.5122 78.3055C70.5122 77.3315 70.5405 76.2926 70.5971 75.1888C70.6536 74.0849 66.7564 67.0742 70.9366 71.3902C75.1169 75.7062 76.5678 70.5136 79.341 70.5136C82.1141 70.5136 84.8873 70.8058 87.6604 71.3902Z" fill="#9E8D2E"/>
<path d="M170.66 71.3902C170.774 72.8187 170.859 74.0524 170.915 75.0914C170.972 76.0653 171 77.1043 171 78.2081C171 79.247 170.972 80.3184 170.915 81.4223C170.859 82.4612 170.774 83.6624 170.66 85.026C169.246 85.2857 167.831 85.513 166.416 85.7078C165.001 85.9026 163.586 86 162.171 86C160.813 86 159.455 85.9026 158.096 85.7078C156.738 85.513 155.351 85.2857 153.937 85.026C153.767 83.7274 153.654 82.5586 153.597 81.5197C153.54 80.4158 153.512 79.3444 153.512 78.3055C153.512 77.3315 153.54 76.2926 153.597 75.1888C153.654 74.0849 149.756 67.0742 153.937 71.3902C158.117 75.7062 159.568 70.5136 162.341 70.5136C165.114 70.5136 167.887 70.8058 170.66 71.3902Z" fill="#9E8D2E"/>
<path d="M66.9551 60.1235C68.8953 63.1235 66.9551 84.9715 66.9551 84.9715H8.07509C8.07509 84.9715 -2.10484 7.62345 0.395157 3.94748C2.89516 0.271507 56 -0.228547 58 3.94748C60 8.1235 28.5551 67.5635 28.5551 67.5635C28.5551 67.5635 65.0149 57.1235 66.9551 60.1235Z" fill="#9E8D2E"/>
</svg>
